<mxfile host="app.diagrams.net" modified="2023-10-26T12:23:27.416Z" agent="Mozilla/5.0 (Android 13; Mobile; rv:109.0) Gecko/118.0 Firefox/118.0" version="22.0.8" etag="NwrklcvzDFuuvnXclBip" type="github">
  <diagram name="PÃ¡gina-1" id="juCdomjvUDbZbsBaYszW">
    <mxGraphModel>
      <root>
        <mxCell id="0" />
        <mxCell id="1" parent="0" />
      </root>
    </mxGraphModel>
  </diagram>
</mxfile>
